<?xml version="1.0" encoding="UTF-8" standalone="no"?>
<!-- Created with Inkscape (http://www.inkscape.org/) -->

<svg
   xmlns:dc="http://purl.org/dc/elements/1.1/"
   xmlns:cc="http://creativecommons.org/ns#"
   xmlns:rdf="http://www.w3.org/1999/02/22-rdf-syntax-ns#"
   xmlns:svg="http://www.w3.org/2000/svg"
   xmlns="http://www.w3.org/2000/svg"
   xmlns:xlink="http://www.w3.org/1999/xlink"
   xmlns:sodipodi="http://sodipodi.sourceforge.net/DTD/sodipodi-0.dtd"
   xmlns:inkscape="http://www.inkscape.org/namespaces/inkscape"
   width="476.0853"
   height="490.0802"
   id="svg3902"
   version="1.1"
   inkscape:version="0.48.4 r9939"
   sodipodi:docname="New document 15">
  <defs
     id="defs3904" />
  <sodipodi:namedview
     id="base"
     pagecolor="#ffffff"
     bordercolor="#666666"
     borderopacity="1.0"
     inkscape:pageopacity="0.0"
     inkscape:pageshadow="2"
     inkscape:zoom="0.35"
     inkscape:cx="144.17953"
     inkscape:cy="137.70501"
     inkscape:document-units="px"
     inkscape:current-layer="layer1"
     showgrid="false"
     fit-margin-top="0"
     fit-margin-left="0"
     fit-margin-right="0"
     fit-margin-bottom="0"
     inkscape:window-width="1280"
     inkscape:window-height="749"
     inkscape:window-x="0"
     inkscape:window-y="26"
     inkscape:window-maximized="1" />
  <metadata
     id="metadata3907">
    <rdf:RDF>
      <cc:Work
         rdf:about="">
        <dc:format>image/svg+xml</dc:format>
        <dc:type
           rdf:resource="http://purl.org/dc/dcmitype/StillImage" />
        <dc:title></dc:title>
      </cc:Work>
    </rdf:RDF>
  </metadata>
  <g
     inkscape:label="Layer 1"
     inkscape:groupmode="layer"
     id="layer1"
     transform="translate(-230.82047,-179.98698)">
    <g
       inkscape:label="Layer 1"
       id="layer1-6"
       style="opacity:0.75;display:none"
       transform="translate(2.9527553,-107.49489)">
      <image
         sodipodi:absref="/home/argument0/Pictures/Marx y marxismo/karl-marx-portrait-billboard-1548.jpg"
         y="213.84747"
         x="-314.02237"
         id="image8598"
         xlink:href="file:///home/argument0/Pictures/Marx%20y%20marxismo/karl-marx-portrait-billboard-1548.jpg"
         preserveAspectRatio="none"
         height="816.37952"
         width="1234.1362" />
    </g>
    <g
       id="g4021">
      <path
         style="fill:#ffffff;fill-rule:evenodd;stroke:#000000;stroke-width:10.29223633;stroke-linecap:butt;stroke-linejoin:miter;stroke-miterlimit:4;stroke-opacity:1;stroke-dasharray:none"
         d="m 326.20664,292.36423 c -1.97615,-19.83972 17.68216,-46.99948 27.10299,-55.52651 10.9652,-9.92488 57.09614,-31.95696 83.4661,-31.3327 17.97453,0.42551 66.53305,-9.51182 105.0567,6.0559 29.99903,12.12285 50.00043,38.77354 67.37017,65.01819 19.12465,28.89619 20.02069,60.16799 18.70315,64.38047 -1.31518,4.20497 43.68505,25.75317 50.57052,52.37174 3.91707,15.14302 8.84109,31.3327 4.365,51.8701 -4.4761,20.5374 -14.65141,54.73981 -25.1834,63.69203 -10.53201,8.95219 -19.52608,13.60622 -32.95439,13.60622 4.33279,22.95944 -10.46354,42.14656 -21.52216,46.09604 8.51276,30.57051 -18.49661,56.93294 -50.74041,53.04973 -4.73939,9.74209 -46.93502,20.47782 -64.04951,10.73571 -9.74211,13.9549 -34.06797,16.99533 -48.54947,11.46603 -22.3805,8.1623 -49.55265,0.72429 -59.69229,-9.71129 -24.92091,-1.75856 -30.59445,-5.13617 -38.17801,-22.08924 -38.77587,0.66573 -58.29758,-27.06747 -51.03833,-47.72333 -16.60955,-3.75667 -5.99688,-43.56425 2.45548,-55.92826 -10.83311,1.96691 -28.27898,7.59589 -35.04111,-8.9437 -5.86562,-14.3468 -6.9258,-19.73516 -3.30756,-35.49919 3.5464,-15.45099 7.50136,-21.53957 11.60728,-27.42491 -5.13871,-4.21337 -12.70787,-19.97286 -5.63689,-43.24264 7.07098,-23.26978 8.44592,-38.96379 25.38711,-51.9168 16.94493,-12.95587 21.81232,-40.36866 39.80903,-49.00359 z"
         id="path7369"
         inkscape:connector-curvature="0"
         sodipodi:nodetypes="csssssssscccccccccssczsc" />
      <path
         style="fill:none;stroke:#000000;stroke-width:6.86149073;stroke-linecap:butt;stroke-linejoin:miter;stroke-miterlimit:4;stroke-opacity:1;stroke-dasharray:none"
         d="m 335.40523,452.48042 c -5.5293,-9.2155 -17.6411,-29.2263 -15.0081,-37.6519 2.633,-8.4256 2.61756,-29.91011 3.4229,-35.5455 0.80534,-5.63539 3.18939,-31.21837 5.29579,-39.38066 2.1064,-8.16231 5.76281,-45.40194 18.13791,-58.30364 12.3751,-12.9017 33.7024,-41.8647 79.5166,-42.9179 45.8142,-1.0532 89.52201,2.1064 98.4742,12.6384 8.95219,10.532 18.72378,27.08357 21.3273,29.2263 15.87868,13.06834 21.50636,47.21986 15.66635,52.79165 -8.02157,7.65316 4.87106,46.99905 2.23804,55.42465 -2.633,8.4256 -12.11178,26.8566 -13.42829,31.3327 -1.31651,4.4761 -2.633,31.8593 -15.00811,31.596 -12.37508,-0.2633 -99.79069,3.4229 -101.63379,3.6862 -1.8431,0.2633 -85.0459,6.5825 -89.2587,4.7394 -4.2128,-1.8431 -9.7421,-7.6357 -9.7421,-7.6357 z"
         id="path7346"
         inkscape:connector-curvature="0"
         sodipodi:nodetypes="cszsssssssssssc" />
      <path
         style="fill:#000000;fill-rule:evenodd;stroke:none"
         d="m 427.83785,428.68624 c -2.9395,-0.69902 -34.85452,4.42636 -49.5663,11.25717 -6.29501,2.92283 -20.08591,12.06028 -24.38489,16.91661 -3.35145,3.78594 -9.62954,10.72926 -8.53945,20.8138 1.10286,10.20276 3.01585,20.74273 17.42182,19.3356 7.18729,-0.70204 18.39501,-6.70047 26.69075,-13.05378 11.09754,-1.93411 21.72557,-8.20563 25.19295,-9.06811 7.77151,-1.93309 23.00095,-3.09392 30.52111,0.23454 1.47804,0.65419 14.48465,5.87768 26.57119,8.03943 8.4178,5.12766 19.44124,9.49313 22.50678,10.01893 6.83674,1.17262 32.96281,11.02266 37.35785,0.70359 4.39504,-10.31908 4.0273,-30.40079 -5.37174,-37.75843 -15.13813,-11.85027 -44.36424,-23.43089 -61.38753,-26.48458 -6.72481,-1.20633 -33.59417,-1.42382 -37.01254,-0.95477 z"
         id="path7348"
         inkscape:connector-curvature="0"
         sodipodi:nodetypes="csssscsscssssc" />
      <path
         style="fill:#000000;fill-rule:evenodd;stroke:none"
         d="m 411.83292,352.6971 c 1.23827,-7.05231 -1.03866,-10.27304 -5.05784,-12.60217 -4.01918,-2.32913 -26.38748,-11.30851 -29.03193,-12.87781 -2.50446,-1.48623 -17.91105,2.43216 -22.50895,9.44212 -2.95233,4.50112 -14.4905,17.2866 -14.04921,19.19512 0.44131,1.90851 2.53877,9.56143 6.44403,5.94402 3.90527,-3.61741 9.29604,-12.92375 12.74984,-14.34303 3.78607,-1.55583 35.56047,10.13385 37.4176,10.31181 1.85712,0.17797 12.56814,3.29248 14.03646,-5.07006 z"
         id="path7911"
         inkscape:connector-curvature="0"
         sodipodi:nodetypes="sssssssss" />
      <path
         style="fill:#000000;fill-rule:evenodd;stroke:#000000;stroke-width:0.22881933px;stroke-linecap:butt;stroke-linejoin:miter;stroke-opacity:1"
         d="m 442.64153,353.75802 c -0.62941,-5.13881 2.74824,-12.18274 5.52937,-14.20785 2.78112,-2.02511 30.58996,-12.80111 38.56932,-11.56373 7.97937,1.23738 33.63735,16.86299 39.52961,21.39774 5.61642,4.32249 7.62582,9.83166 5.27337,14.72632 -1.31449,2.73505 -7.96187,1.19302 -13.14754,-1.012 -2.44398,-1.03924 -24.3253,-12.41157 -31.66626,-13.5022 -7.34095,-1.09064 -36.26048,13.00498 -39.06352,11.04974 -2.42741,-1.69322 -4.66238,-3.93272 -5.02435,-6.88802 z"
         id="path7913"
         inkscape:connector-curvature="0"
         sodipodi:nodetypes="aszssszsa" />
    </g>
  </g>
</svg>
